<svg xmlns="http://www.w3.org/2000/svg" xmlns:xlink="http://www.w3.org/1999/xlink" width="2000" zoomAndPan="magnify" viewBox="0 0 1500 1499.999933" height="2000" preserveAspectRatio="xMidYMid meet" version="1.0"><defs><clipPath id="6b1f2ceb2a"><path d="M 48.308594 340 L 759 340 L 759 1274.851562 L 48.308594 1274.851562 Z M 48.308594 340 " clip-rule="nonzero"/></clipPath><clipPath id="6fe90bf6b8"><path d="M 0.957031 2.734375 L 348 2.734375 L 348 465 L 0.957031 465 Z M 0.957031 2.734375 " clip-rule="nonzero"/></clipPath><clipPath id="b4ad046ef7"><path d="M 799.230469 507 L 983 507 L 983 1111 L 799.230469 1111 Z M 799.230469 507 " clip-rule="nonzero"/></clipPath><clipPath id="35632c2fb8"><path d="M 799.230469 566.761719 L 799.230469 1050.1875 C 799.230469 1066.300781 805.632812 1081.75 817.023438 1093.144531 C 828.417969 1104.535156 843.871094 1110.9375 859.980469 1110.9375 L 921.847656 1110.9375 C 937.960938 1110.9375 953.410156 1104.535156 964.804688 1093.144531 C 976.199219 1081.75 982.597656 1066.300781 982.597656 1050.1875 L 982.597656 566.761719 C 982.597656 550.648438 976.199219 535.195312 964.804688 523.804688 C 953.410156 512.410156 937.960938 506.011719 921.847656 506.011719 L 859.980469 506.011719 C 843.871094 506.011719 828.417969 512.410156 817.023438 523.804688 C 805.632812 535.195312 799.230469 550.648438 799.230469 566.761719 Z M 799.230469 566.761719 " clip-rule="nonzero"/></clipPath><clipPath id="90cb3cb579"><path d="M 1023.199219 385 L 1206.71875 385 L 1206.71875 990 L 1023.199219 990 Z M 1023.199219 385 " clip-rule="nonzero"/></clipPath><clipPath id="c422a9a325"><path d="M 1023.199219 445.472656 L 1023.199219 928.898438 C 1023.199219 945.011719 1029.601562 960.460938 1040.992188 971.855469 C 1052.386719 983.246094 1067.839844 989.648438 1083.949219 989.648438 L 1145.816406 989.648438 C 1161.929688 989.648438 1177.382812 983.246094 1188.773438 971.855469 C 1200.167969 960.460938 1206.566406 945.011719 1206.566406 928.898438 L 1206.566406 445.472656 C 1206.566406 429.359375 1200.167969 413.90625 1188.773438 402.515625 C 1177.382812 391.121094 1161.929688 384.722656 1145.816406 384.722656 L 1083.949219 384.722656 C 1067.839844 384.722656 1052.386719 391.121094 1040.992188 402.515625 C 1029.601562 413.90625 1023.199219 429.359375 1023.199219 445.472656 Z M 1023.199219 445.472656 " clip-rule="nonzero"/></clipPath><clipPath id="eecac0d50d"><rect x="0" width="1207" y="0" height="1390"/></clipPath></defs><g transform="matrix(1, 0, 0, 1, 126, 110)"><g clip-path="url(#eecac0d50d)"><g clip-path="url(#6b1f2ceb2a)"><path fill="#ffffff" d="M 468.632812 723.953125 C 414.375 765.351562 336.835938 754.960938 295.390625 700.738281 C 266.765625 663.289062 199.582031 575.246094 199.582031 575.246094 C 196.21875 571.324219 192.578125 569.363281 188.65625 569.363281 L 181.09375 569.363281 C 176.609375 569.363281 174.371094 572.164062 174.371094 577.765625 L 174.371094 1118.003906 C 174.371094 1151.4375 161.089844 1183.5 137.449219 1207.140625 C 116.601562 1227.988281 91.125 1253.464844 72.753906 1271.832031 C 68.660156 1275.929688 62.5 1277.15625 57.148438 1274.9375 C 51.796875 1272.722656 48.304688 1267.5 48.304688 1261.707031 C 48.304688 1112.839844 48.304688 534.066406 48.304688 534.066406 C 48.304688 499.886719 54.46875 476.777344 66.796875 464.730469 C 79.121094 452.683594 98.171875 446.660156 123.945312 446.660156 L 197.902344 446.660156 C 211.347656 446.660156 222.554688 447.222656 231.519531 448.339844 C 240.484375 449.460938 248.328125 451.84375 255.050781 455.484375 C 261.773438 459.125 268.214844 464.167969 274.378906 470.613281 C 280.542969 477.054688 287.546875 485.601562 295.390625 496.246094 L 468.847656 723.789062 C 468.847656 723.789062 468.773438 723.84375 468.632812 723.953125 Z M 338.136719 892.925781 C 392.394531 851.53125 469.933594 861.917969 511.378906 916.140625 C 540.003906 953.589844 607.1875 1041.632812 607.1875 1041.632812 C 610.546875 1045.554688 614.191406 1047.515625 618.113281 1047.515625 L 625.675781 1047.515625 C 630.160156 1047.515625 632.398438 1044.714844 632.398438 1039.113281 C 632.398438 1039.113281 632.398438 643.574219 632.398438 498.875 C 632.398438 465.441406 645.679688 433.378906 669.320312 409.738281 C 690.167969 388.890625 715.644531 363.414062 734.011719 345.046875 C 738.109375 340.949219 744.269531 339.722656 749.621094 341.941406 C 754.972656 344.15625 758.460938 349.378906 758.460938 355.171875 C 758.460938 504.039062 758.460938 1082.8125 758.460938 1082.8125 C 758.460938 1116.992188 752.300781 1140.101562 739.972656 1152.148438 C 727.648438 1164.195312 708.597656 1170.21875 682.824219 1170.21875 L 608.867188 1170.21875 C 595.421875 1170.21875 584.214844 1169.65625 575.25 1168.535156 C 566.285156 1167.417969 558.441406 1165.035156 551.71875 1161.394531 C 544.996094 1157.75 538.550781 1152.710938 532.390625 1146.265625 C 526.226562 1139.824219 519.222656 1131.277344 511.378906 1120.632812 L 337.921875 893.089844 C 337.921875 893.089844 337.996094 893.035156 338.136719 892.925781 Z M 338.136719 892.925781 " fill-opacity="1" fill-rule="evenodd"/></g><g clip-path="url(#6fe90bf6b8)"><path fill="#ffffff" d="M 174.003906 2.734375 L 347.050781 464.199219 L 174.003906 348.832031 L 0.957031 464.195312 Z M 174.003906 2.734375 " fill-opacity="1" fill-rule="evenodd"/></g><g clip-path="url(#b4ad046ef7)"><g clip-path="url(#35632c2fb8)"><path fill="#ffffff" d="M 692.703125 890.28125 C 638.445312 931.679688 560.90625 921.289062 519.460938 867.066406 C 490.835938 829.617188 423.652344 741.574219 423.652344 741.574219 C 420.292969 737.652344 416.648438 735.691406 412.726562 735.691406 L 405.164062 735.691406 C 400.683594 735.691406 398.441406 738.492188 398.441406 744.09375 L 398.441406 1284.332031 C 398.441406 1317.765625 385.160156 1349.828125 361.519531 1373.46875 C 340.671875 1394.316406 315.195312 1419.789062 296.828125 1438.160156 C 292.730469 1442.257812 286.570312 1443.484375 281.21875 1441.265625 C 275.867188 1439.050781 272.378906 1433.828125 272.378906 1428.035156 C 272.378906 1279.167969 272.378906 700.394531 272.378906 700.394531 C 272.378906 666.214844 278.539062 643.105469 290.867188 631.058594 C 303.191406 619.011719 322.242188 612.988281 348.015625 612.988281 L 421.972656 612.988281 C 435.417969 612.988281 446.625 613.550781 455.589844 614.667969 C 464.554688 615.789062 472.398438 618.171875 479.121094 621.8125 C 485.84375 625.453125 492.289062 630.496094 498.449219 636.941406 C 504.613281 643.382812 511.617188 651.929688 519.460938 662.574219 L 692.917969 890.117188 C 692.917969 890.117188 692.84375 890.171875 692.703125 890.28125 Z M 562.207031 1059.253906 C 616.464844 1017.859375 694.003906 1028.246094 735.449219 1082.46875 C 764.074219 1119.917969 831.257812 1207.960938 831.257812 1207.960938 C 834.621094 1211.882812 838.261719 1213.84375 842.183594 1213.84375 L 849.746094 1213.84375 C 854.230469 1213.84375 856.472656 1211.042969 856.472656 1205.441406 C 856.472656 1205.441406 856.472656 809.902344 856.472656 665.203125 C 856.472656 631.769531 869.75 599.707031 893.390625 576.066406 C 914.238281 555.21875 939.714844 529.742188 958.085938 511.375 C 962.179688 507.277344 968.339844 506.050781 973.691406 508.269531 C 979.042969 510.484375 982.535156 515.707031 982.535156 521.5 C 982.535156 670.367188 982.535156 1249.140625 982.535156 1249.140625 C 982.535156 1283.320312 976.371094 1306.429688 964.046875 1318.476562 C 951.71875 1330.523438 932.667969 1336.546875 906.894531 1336.546875 L 832.9375 1336.546875 C 819.492188 1336.546875 808.285156 1335.984375 799.320312 1334.863281 C 790.359375 1333.746094 782.515625 1331.363281 775.789062 1327.722656 C 769.066406 1324.078125 762.625 1319.035156 756.460938 1312.59375 C 750.296875 1306.152344 743.292969 1297.605469 735.449219 1286.960938 L 561.996094 1059.417969 C 561.996094 1059.417969 562.066406 1059.363281 562.207031 1059.253906 Z M 562.207031 1059.253906 " fill-opacity="1" fill-rule="evenodd"/></g></g><g clip-path="url(#90cb3cb579)"><g clip-path="url(#c422a9a325)"><path fill="#ffffff" d="M 916.671875 768.992188 C 862.414062 810.390625 784.875 800 743.429688 745.777344 C 714.808594 708.328125 647.625 620.285156 647.625 620.285156 C 644.261719 616.363281 640.621094 614.402344 636.699219 614.402344 L 629.132812 614.402344 C 624.652344 614.402344 622.410156 617.203125 622.410156 622.804688 L 622.410156 1163.042969 C 622.410156 1196.476562 609.128906 1228.539062 585.488281 1252.179688 C 564.644531 1273.027344 539.167969 1298.503906 520.796875 1316.871094 C 516.699219 1320.96875 510.539062 1322.195312 505.1875 1319.976562 C 499.835938 1317.761719 496.347656 1312.539062 496.347656 1306.746094 C 496.347656 1157.878906 496.347656 579.105469 496.347656 579.105469 C 496.347656 544.925781 502.511719 521.816406 514.835938 509.769531 C 527.164062 497.722656 546.210938 491.699219 571.984375 491.699219 L 645.941406 491.699219 C 659.390625 491.699219 670.59375 492.261719 679.558594 493.378906 C 688.523438 494.5 696.367188 496.882812 703.089844 500.523438 C 709.8125 504.167969 716.257812 509.207031 722.421875 515.652344 C 728.585938 522.09375 735.585938 530.640625 743.429688 541.285156 L 916.886719 768.828125 C 916.886719 768.828125 916.816406 768.882812 916.671875 768.992188 Z M 786.179688 937.964844 C 840.4375 896.570312 917.976562 906.957031 959.421875 961.179688 C 988.042969 998.628906 1055.226562 1086.671875 1055.226562 1086.671875 C 1058.589844 1090.59375 1062.230469 1092.554688 1066.152344 1092.554688 L 1073.71875 1092.554688 C 1078.199219 1092.554688 1080.441406 1089.753906 1080.441406 1084.152344 C 1080.441406 1084.152344 1080.441406 688.613281 1080.441406 543.914062 C 1080.441406 510.480469 1093.722656 478.417969 1117.363281 454.777344 C 1138.207031 433.929688 1163.683594 408.453125 1182.054688 390.085938 C 1186.152344 385.988281 1192.3125 384.761719 1197.664062 386.980469 C 1203.015625 389.195312 1206.503906 394.417969 1206.503906 400.210938 C 1206.503906 549.078125 1206.503906 1127.851562 1206.503906 1127.851562 C 1206.503906 1162.03125 1200.339844 1185.140625 1188.015625 1197.1875 C 1175.6875 1209.234375 1156.640625 1215.257812 1130.867188 1215.257812 L 1056.910156 1215.257812 C 1043.460938 1215.257812 1032.257812 1214.695312 1023.292969 1213.574219 C 1014.328125 1212.457031 1006.484375 1210.074219 999.761719 1206.433594 C 993.035156 1202.789062 986.59375 1197.75 980.429688 1191.304688 C 974.265625 1184.863281 967.265625 1176.316406 959.421875 1165.671875 L 785.964844 938.128906 C 785.964844 938.128906 786.035156 938.074219 786.179688 937.964844 Z M 786.179688 937.964844 " fill-opacity="1" fill-rule="evenodd"/></g></g></g></g></svg>